<svg xmlns="http://www.w3.org/2000/svg" width="104" height="34" viewBox="0 0 104 34" fill="none">
  <g clip-path="url(#clip0_901_360)">
    <path fill-rule="evenodd" clip-rule="evenodd" d="M33.352 0H33.431C34.273 0.02 34.971 0.231 35.418 0.631C35.998 1.147 36.004 2.188 35.975 3.376H33.811V2.32C33.811 1.954 33.84 1.454 33.684 1.327C33.6101 1.28222 33.5259 1.25722 33.4396 1.25442C33.3532 1.25162 33.2676 1.2711 33.191 1.311C32.989 1.44 33.033 2.115 33.033 2.517V5.206C33.033 5.592 32.977 6.249 33.191 6.389C33.2641 6.42191 33.3438 6.43759 33.4239 6.43482C33.504 6.43204 33.5824 6.41089 33.653 6.373C33.819 6.251 33.811 5.857 33.811 5.553V4.575H35.973C35.941 5.367 36.032 6.005 35.77 6.585C35.541 6.982 35.185 7.294 34.757 7.469C33.577 7.975 31.597 7.669 31.111 6.681C30.894 6.231 30.908 5.714 30.855 5.087V2.57C30.855 1.724 30.951 1.164 31.332 0.742C31.759 0.259 32.47 0.04 33.352 0ZM37.166 0.126H40.282C40.687 2.604 41.112 5.044 41.497 7.524H39.471L39.313 6.167H38.233L38.073 7.526H36.037C36.41 5.0667 36.7784 2.6067 37.142 0.146C37.1481 0.136915 37.1574 0.13048 37.168 0.128L37.166 0.126ZM38.724 4.906H39.154C39.06 3.9 38.9 2.82 38.785 1.781C38.65 2.82 38.521 3.861 38.396 4.904H38.723L38.724 4.906ZM41.887 0.143H44.035C44.071 1.985 44.035 4.14 44.051 6.025C44.456 6.061 44.926 6.025 45.356 6.041V7.524H41.87V0.189C41.87 0.167 41.869 0.145 41.887 0.143ZM45.88 0.143H48.017V6.029C48.422 6.065 48.902 6.029 49.336 6.045V7.528H45.863V0.188C45.863 0.167 45.861 0.145 45.88 0.143ZM54.18 1.467V6.262C54.363 6.262 54.658 6.236 54.754 6.103C54.889 5.914 54.849 5.392 54.849 5.03V2.665C54.849 2.305 54.899 1.73 54.769 1.561C54.669 1.431 54.409 1.415 54.197 1.419C54.178 1.419 54.178 1.443 54.18 1.467ZM52.033 0.143C52.697 0.165 53.439 0.113 54.148 0.143C55.363 0.193 56.398 0.193 56.834 1.011C57.014 1.348 57.024 1.961 57.024 2.556V5.552C57.024 6.37 56.956 6.975 56.437 7.271C55.919 7.566 55.108 7.538 54.355 7.538C53.545 7.538 52.722 7.55 52 7.522V0.189C51.999 0.178773 52.0016 0.168511 52.0075 0.160072C52.0133 0.151633 52.023 0.145576 52.033 0.143ZM57.58 0.143H59.712C59.765 1.925 59.642 3.931 59.712 5.806C59.724 6.109 59.73 6.372 59.935 6.421C60.46 6.543 60.316 5.617 60.316 5.159V0.159C61.005 0.123 61.763 0.159 62.478 0.143V4.875C62.478 5.44 62.516 6.081 62.35 6.499C62.077 7.18 61.367 7.584 60.474 7.667C59.228 7.781 57.826 7.355 57.611 6.232C57.524 5.782 57.579 5.263 57.565 4.749C57.518 3.284 57.553 1.632 57.565 0.191C57.538 0.167 57.547 0.151 57.58 0.143ZM62.956 0.143H67.678V1.623H66.406C66.369 3.563 66.406 5.573 66.39 7.538C65.668 7.528 64.907 7.558 64.212 7.522V1.624H62.939V0.189C62.939 0.167 62.937 0.145 62.956 0.143ZM68.074 0.143H70.046L70.653 2.048L71.178 0.143H73.15L71.57 4.839V7.586H69.566V4.906C69.07 3.334 68.573 1.762 68.074 0.189C68.074 0.177 68.052 0.147 68.074 0.143Z" fill="white"/>
    <path fill-rule="evenodd" clip-rule="evenodd" d="M49.346 2.335C49.318 2.705 49.33 3.278 49.33 3.675C49.33 3.81 49.275 4.003 49.409 4.053C49.542 4.041 49.504 3.853 49.504 3.69V2.697C49.504 2.517 49.542 2.267 49.392 2.295C49.381 2.29899 49.371 2.30536 49.3627 2.31366C49.3544 2.32195 49.348 2.33197 49.344 2.343L49.346 2.335ZM49.283 1.863C49.4327 1.83196 49.5883 1.84877 49.728 1.91104C49.8676 1.97331 49.9841 2.07789 50.061 2.21C50.154 2.411 50.124 2.978 50.124 3.3C50.124 3.726 50.136 4.093 49.966 4.292C49.664 4.646 48.953 4.53 48.772 4.15C48.667 3.92 48.71 3.448 48.71 3.145C48.71 2.671 48.673 2.383 48.789 2.166C48.8411 2.07949 48.9131 2.00668 48.999 1.95363C49.085 1.90058 49.1823 1.86882 49.283 1.861V1.863ZM51.3 1.893V2.412H50.92C50.901 2.56858 50.8957 2.7265 50.904 2.884H51.258V3.376H50.924C50.888 3.702 50.924 4.096 50.908 4.449H50.32V1.893H51.3ZM72.328 6.744C72.399 6.746 72.468 6.764 72.531 6.798C72.5965 6.83408 72.6512 6.88704 72.6894 6.95138C72.7275 7.01573 72.7477 7.08911 72.7479 7.16391C72.7481 7.23871 72.7283 7.31221 72.6905 7.37676C72.6527 7.44131 72.5983 7.49457 72.533 7.531C72.469 7.56708 72.3969 7.5861 72.3235 7.58622C72.25 7.58635 72.1778 7.56758 72.1137 7.53173C72.0496 7.49587 71.9959 7.44413 71.9576 7.38148C71.9193 7.31883 71.8977 7.24738 71.895 7.174C71.8954 7.09906 71.9155 7.02556 71.9535 6.96093C71.9914 6.8963 72.0457 6.84285 72.111 6.806C72.1733 6.7718 72.243 6.75327 72.314 6.752L72.328 6.744ZM72.328 6.814C72.267 6.81488 72.2072 6.83104 72.154 6.861C72.0984 6.89075 72.0526 6.93588 72.022 6.991C71.9985 7.03101 71.9832 7.07534 71.9771 7.12136C71.971 7.16737 71.9742 7.21415 71.9865 7.2589C71.9988 7.30366 72.02 7.34549 72.0488 7.38192C72.0775 7.41835 72.1133 7.44865 72.154 7.471C72.2212 7.50909 72.2989 7.52418 72.3755 7.51396C72.452 7.50375 72.5231 7.46879 72.5779 7.41443C72.6327 7.36006 72.6683 7.28926 72.6791 7.21281C72.69 7.13637 72.6755 7.05848 72.638 6.991C72.6075 6.93578 72.5617 6.89061 72.506 6.861C72.4528 6.83104 72.393 6.81488 72.332 6.814H72.328ZM72.142 7.399H72.215V7.199H72.257C72.2778 7.19747 72.2985 7.20273 72.316 7.214C72.348 7.244 72.374 7.28 72.393 7.319L72.433 7.391H72.531L72.476 7.303C72.457 7.27064 72.4346 7.24046 72.409 7.213C72.398 7.20234 72.3851 7.19386 72.371 7.188C72.3968 7.18675 72.4217 7.17856 72.4432 7.1643C72.4646 7.15004 72.4819 7.13024 72.493 7.107C72.5007 7.08863 72.5036 7.06859 72.5013 7.0488C72.499 7.02901 72.4917 7.01013 72.48 6.994C72.4665 6.97314 72.4464 6.95732 72.423 6.949C72.3848 6.93908 72.3454 6.93503 72.306 6.937H72.15V7.389L72.142 7.399ZM72.215 7.144H72.304C72.334 7.147 72.364 7.141 72.391 7.126C72.4034 7.1158 72.4116 7.10128 72.4138 7.08535C72.416 7.06941 72.4122 7.05322 72.403 7.04C72.3957 7.02887 72.3853 7.02017 72.373 7.015C72.3482 7.01095 72.3228 7.01095 72.298 7.015H72.215V7.144ZM1.275 22.98L1.289 23.249L2.75 33.899L6.567 33.916H9.457L10.491 19.632C10.524 19.102 10.411 19.029 10.851 18.986L11.941 33.92H18.656C19.043 32.045 19.189 29.806 19.466 27.89C19.776 25.831 21.381 14.334 21.397 12.803C21.41 11.653 21.397 10.492 21.397 9.341L16.521 9.306C16.399 11.746 16.174 14.22 16.006 16.656L15.538 23.086C15.506 23.588 15.638 23.781 15.234 23.89L14.075 9.312H7.305L6.975 14.067C6.965 14.288 6.999 14.702 6.857 14.807C6.977 15.497 6.433 21.639 6.32 23.397C6.29 23.867 6.375 23.747 6.117 23.902C5.882 23.765 5.97 24.175 5.895 23.13C5.875 22.835 5.845 22.527 5.824 22.238C5.692 20.486 5.014 9.923 4.857 9.367L0.0110002 9.31C0.0110002 13.062 -0.0999998 12.634 0.384 16.372C0.67 18.575 1.014 20.773 1.275 22.98ZM88.621 33.962H90.949L91.557 33.972C91.701 33.883 91.628 33.954 91.665 33.771V9.399L86.889 9.383L86.855 20.096C86.375 20.066 86.545 20.156 86.186 19.035L84.856 14.871C84.543 13.928 84.266 13.062 83.964 12.101C83.729 11.354 83.356 9.958 83.06 9.375H78.33L78.291 33.962H83.093V23.262C83.607 23.239 83.607 23.802 83.747 24.246C84.393 26.297 86.51 32.536 86.845 33.962H88.621ZM40.287 13.758H41.097C42.082 13.758 42.228 13.645 42.667 14.027L42.678 17.903C42.678 18.546 42.842 19.712 42.354 19.913H40.318L40.3 14.547V13.766L40.287 13.758ZM34.795 33.853H40.235L40.222 24.621C40.267 24.281 40.222 24.469 40.338 24.344L40.875 24.358L43.155 31.233L43.278 31.635L44.008 33.845H48.774V30.361L45.897 22.63C47.978 21.348 48.181 20.68 48.181 17.712C48.181 15.789 48.476 12.56 47.65 11.032C46.619 9.123 44.72 9.314 42.076 9.314H34.8L34.796 33.854L34.795 33.853ZM69.672 13.774C70.537 13.774 71.657 13.573 71.792 14.252V27.33C71.792 28.299 71.994 29.513 71.238 29.513C69.745 29.513 69.37 29.688 69.37 28.677C69.37 24.139 69.297 18.617 69.4 14.061L69.67 13.78L69.672 13.774ZM66.519 9.429C63.369 10.311 63.899 13.663 63.886 16.262C63.879 19.434 63.879 22.607 63.886 25.779C63.886 28.691 63.292 32.127 65.579 33.498C66.714 34.177 68.124 33.948 69.875 33.948C70.802 33.948 74.015 34.071 74.686 33.912C75.203 33.789 75.839 33.322 76.135 33.05C77.612 31.681 77.255 29.167 77.255 27.02C77.255 24.875 77.373 14.41 77.225 12.79C77.089 11.306 76.518 10.378 75.511 9.797C74.737 9.355 74.634 9.363 73.653 9.365C72.411 9.383 66.979 9.3 66.519 9.429ZM26.257 23.699C26.257 22.525 26.477 21.029 26.585 19.822C26.642 19.182 26.696 18.542 26.759 17.902C26.792 17.574 26.816 17.28 26.839 16.942C26.873 16.44 26.753 16.34 27.144 16.249L27.918 23.954C27.752 24.171 26.476 24.064 26.192 24.014L26.257 23.699ZM21.913 18.529C21.901 18.705 21.95 18.969 21.781 18.969C21.875 19.611 21.194 23.313 21.052 24.254C20.862 25.522 20.242 28.492 20.3 29.574C20.227 30.951 20.27 32.461 20.272 33.867H25.019C25.424 33.823 25.183 33.884 25.399 33.727L25.769 29.169L28.376 29.131L28.781 33.918H33.887C34.361 30.883 33.103 24.32 32.637 21.304L31.261 12.293C31.18 11.77 31.107 11.288 31.03 10.781C30.991 10.521 30.951 10.287 30.914 10.018C30.815 9.262 30.882 9.375 30.624 9.31C29.472 9.31 23.967 9.176 23.304 9.379L21.913 18.529ZM56.43 15.102L56.239 15.484L52.187 24.003C51.54 25.395 50.857 26.904 50.161 28.239C49.553 29.404 49.553 29.302 49.553 30.783V33.942L62.924 33.954V28.829H55.771L60.025 19.851C60.735 18.323 61.443 16.851 62.175 15.347C62.748 14.16 62.916 14.267 62.916 12.711C62.916 11.776 63.008 10.237 62.884 9.375H49.574L49.549 14.491L56.701 14.501L56.43 15.102ZM92.848 33.962H103.997V28.837H98.307L98.269 24.417L98.309 24.101H102.639C102.903 23.978 102.741 24.183 102.828 23.886L103.395 18.993H98.271V14.5H103.966L103.999 14.3V9.464H92.856L92.848 33.961V33.962Z" fill="white"/>
    <path fill-rule="evenodd" clip-rule="evenodd" d="M92.752 28.313V33.68C92.786 34.012 92.752 33.833 92.849 33.962V9.465H103.992C103.816 9.224 102.361 9.359 102.059 9.359H92.79L92.752 28.313Z" fill="white"/>
  </g>
  <defs>
    <clipPath id="clip0_901_360">
      <rect width="104" height="34" fill="white"/>
    </clipPath>
  </defs>
</svg>