<svg xmlns="http://www.w3.org/2000/svg" width="102" height="28" viewBox="0 0 102 28" fill="none">
  <g clip-path="url(#clip0_901_364)">
    <path d="M0.0500031 14C0.0500031 21.686 0.0700031 27.972 0.0960031 27.972C0.135003 27.972 5.387 27.015 6.032 26.888L6.367 26.825V16.566H10.363V15.628C10.363 15.115 10.383 13.778 10.408 12.65L10.447 10.61H6.367V6.11H8.72C10.015 6.11 11.072 6.097 11.072 6.078C11.072 6.008 11.588 0.598 11.62 0.325L11.659 0.0270004H0.0500031V14ZM96.459 0.845L91.315 1.264V26.508L91.528 26.54C91.715 26.571 101.673 27.281 101.873 27.275C101.931 27.275 101.95 26.603 101.95 24.138V21.002H97.567V16.439H101.305V10.99H97.438V7.378L97.586 7.353C97.664 7.334 98.321 7.309 99.05 7.283C99.778 7.264 100.725 7.233 101.164 7.207L101.95 7.169V0.41L101.776 0.416C101.673 0.422 99.282 0.611 96.459 0.845ZM63.44 1.72C63.505 2.354 64.24 11.903 64.226 11.915C64.22 11.928 63.272 9.64 62.119 6.833C61.416 5.1034 60.7027 3.37804 59.979 1.657C59.94 1.587 58.161 1.91 55.242 2.518L54.965 2.575V24.36H60.7L60.668 23.904C60.603 23.054 60.365 16.034 60.39 15.755C60.41 15.508 60.603 15.939 62.434 20.285C63.542 22.928 64.484 25.114 64.509 25.152C64.548 25.19 65.443 25.133 66.965 25.006C68.285 24.892 69.369 24.791 69.369 24.785C69.375 24.778 69.343 20.21 69.298 14.633C69.252 9.057 69.214 3.792 69.214 2.923L69.207 1.359H63.4L63.439 1.719L63.44 1.72ZM18.066 1.745C14.211 2 12.09 4.59 11.42 9.85C11.285 10.94 11.227 14.64 11.323 15.932C11.646 20.127 12.799 22.852 14.849 24.24C15.951 24.98 17.607 25.38 19.244 25.285C21.107 25.184 22.377 24.665 23.518 23.543C24.452 22.623 24.961 21.762 25.451 20.292C26.134 18.239 26.444 15.172 26.289 11.979C26.115 8.405 25.567 6.181 24.439 4.476C23.363 2.854 21.661 1.885 19.676 1.764C19.36 1.745 19.026 1.726 18.936 1.714C18.845 1.707 18.459 1.72 18.066 1.745ZM18.975 6.725C19.445 7.226 19.645 9.222 19.645 13.493C19.645 18.753 19.31 20.938 18.575 20.469C18.259 20.26 18.021 19.24 17.905 17.549C17.821 16.313 17.821 10.654 17.905 9.469C18.027 7.797 18.246 6.871 18.575 6.649C18.755 6.523 18.788 6.528 18.975 6.725ZM27.121 13.265V24.803H33.031L33.071 23.999C33.096 23.549 33.148 22.092 33.186 20.749C33.226 19.405 33.276 18.226 33.302 18.131C33.335 17.998 33.612 18.854 34.462 21.743C35.082 23.828 35.603 25.558 35.629 25.583C35.681 25.64 41.726 25.171 41.791 25.108C41.81 25.082 41.14 23.01 40.301 20.488L38.781 15.914L39.103 15.634C40.173 14.716 41.056 12.942 41.307 11.187C41.417 10.42 41.346 8.519 41.178 7.816C40.534 5.059 38.826 2.917 36.648 2.119C35.7 1.777 35.778 1.783 31.298 1.758L27.121 1.733V13.265ZM33.767 7.195C34.224 7.416 34.597 7.987 34.797 8.772C34.933 9.298 34.914 10.965 34.765 11.497C34.488 12.498 33.998 13.081 33.264 13.303L33.116 13.341V6.998L33.328 7.043C33.438 7.062 33.638 7.131 33.767 7.195ZM41.494 4.749V7.695H44.781V24.677H50.969V8.709H54.32V2.816L54.178 2.791C54.043 2.759 41.752 1.796 41.578 1.802C41.514 1.802 41.494 2.436 41.494 4.749ZM70.562 13.937V25.437H76.942V2.436H70.562V13.936V13.937ZM84.225 3.233C80.731 3.417 77.825 3.569 77.767 3.569C77.657 3.575 77.651 3.759 77.651 6.554V9.532H80.938V26.197H87.189V8.836H90.669V5.858C90.669 4.216 90.65 2.886 90.625 2.886C90.593 2.892 87.718 3.043 84.225 3.233Z" fill="white"/>
  </g>
  <defs>
    <clipPath id="clip0_901_364">
      <rect width="102" height="28" fill="white"/>
    </clipPath>
  </defs>
</svg>