<svg xmlns="http://www.w3.org/2000/svg" width="24" height="24" viewBox="0 0 24 24" fill="none">
  <g clip-path="url(#clip0_893_195)">
    <path d="M12 0.47998C5.63761 0.47998 0.480011 5.63758 0.480011 12C0.480011 18.3624 5.63761 23.52 12 23.52C18.3624 23.52 23.52 18.3624 23.52 12C23.52 5.63758 18.3624 0.47998 12 0.47998ZM16.686 9.91678C16.6908 10.0152 16.692 10.1136 16.692 10.2096C16.692 13.2096 14.4108 16.6668 10.2372 16.6668C9.00396 16.6688 7.79637 16.3146 6.75961 15.6468C6.93601 15.6684 7.11721 15.6768 7.30081 15.6768C8.36401 15.6768 9.34201 15.3156 10.1184 14.706C9.64527 14.6967 9.18682 14.54 8.80694 14.2578C8.42707 13.9756 8.14471 13.5819 7.99921 13.1316C8.339 13.1962 8.68903 13.1827 9.02281 13.092C8.50927 12.9881 8.04745 12.7099 7.71566 12.3044C7.38387 11.8989 7.20254 11.3911 7.20241 10.8672V10.8396C7.50841 11.0088 7.85881 11.112 8.23081 11.124C7.74937 10.8035 7.40855 10.3112 7.27807 9.74774C7.14758 9.18429 7.23727 8.59228 7.52881 8.09278C8.09876 8.79358 8.80952 9.36688 9.61509 9.77555C10.4207 10.1842 11.3031 10.4192 12.2052 10.4652C12.0905 9.97835 12.1399 9.46727 12.3456 9.01139C12.5514 8.5555 12.902 8.18037 13.3429 7.9443C13.7838 7.70823 14.2904 7.62445 14.7839 7.70599C15.2773 7.78753 15.7301 8.02981 16.0716 8.39518C16.5794 8.29471 17.0664 8.10845 17.5116 7.84438C17.3424 8.37014 16.988 8.81659 16.5144 9.10078C16.9642 9.0466 17.4035 8.92567 17.8176 8.74198C17.5134 9.19785 17.1302 9.59571 16.686 9.91678Z" fill="white"/>
  </g>
  <defs>
    <clipPath id="clip0_893_195">
      <rect width="24" height="24" fill="white"/>
    </clipPath>
  </defs>
</svg>